<?xml version="1.0" encoding="utf-8"?>
<!-- Generator: Adobe Illustrator 22.0.1, SVG Export Plug-In . SVG Version: 6.00 Build 0)  -->
<svg version="1.1" id="Layer_1" xmlns="http://www.w3.org/2000/svg" xmlns:xlink="http://www.w3.org/1999/xlink" x="0px" y="0px"
	 viewBox="0 0 635.3 222.4" style="enable-background:new 0 0 635.3 222.4;" xml:space="preserve">
<style type="text/css">
	.st0{fill:#FFFFFF;}
</style>
<g>
	<g>
		<g>
			<g>
				<g>
					<path class="st0" d="M179.8,39.9h3.2c12.7,0,21.8-2.6,28.3-8c4.6-5.9,7.3-13.8,7.3-22.9h1.5v30.9h17v1.5h-17V95
						c0,6,0.2,16.8,8.7,16.8c4.2,0,7.7-2.2,11.3-4.8l0.6,0.8c-8.5,7.3-19.2,14.2-32.5,14.2c-10.7,0-16.7-9.7-16.7-21.8V41.4h-11.7
						V39.9z"/>
					<path class="st0" d="M294.4,60.3c0-9.7,0-20.1-11.4-20.1c-6.2,0-12.8,4.9-12.8,12.5c0,3.6,2.2,7.6,5.4,9
						c-0.5,8.8-6.8,13-13.8,13c-7.4,0-14.5-4.5-14.5-14.5c0-18.9,25.8-21.3,40-21.3c17.6,0,35.9,5.7,35.9,23.6v35.7
						c0,5.1,0,13.9,7.1,13.9c2,0,3.9-0.5,6.8-2.5l0.6,0.8c-7.1,6-15.9,11.7-27,11.7c-8.8,0-14.7-6.6-16.1-17
						c-4.5,10.8-16.4,17-28.6,17c-14.5,0-23.8-7-23.8-20.2c0-24.4,34.8-20.2,52.2-32.3V60.3z M294.4,70.8
						c-11,7.1-19.2,7.7-19.2,24.9c0,5.9,1.1,15.3,9.7,15.3c5.9,0,9.4-5.7,9.4-11.4V70.8z"/>
					<path class="st0" d="M387.8,72.6c6-12.7,11.7-31.7-5.9-31.7v-1.1h34.8V41c-10.8,0-16.8,10.7-27,31.7l-25.5,52.7
						c-34.9,71-85.2,43.8-85.2,14.7c0-7.6,5.3-14.7,15.9-14.7c7.7,0,14.7,4.5,15.1,14.2c-27.2,27.4,23.1,46.2,48.3-9.8
						c2-4.4,3.7-8.9,1.5-13.3l-28.8-58.3c-5.9-11.9-10-17.3-19.9-17.3v-1.1h57.6V41c-12.2,0-9,10-4.5,19.6l14.4,30.9L387.8,72.6z"/>
					<path class="st0" d="M408.9,122.1V121c12.1,0,13.4-3.1,13.4-19.6v-77c0-10.4-2.2-14.5-15.3-11.4l-0.3-1.1L450.9,0v101.4
						c0,16.5,1.4,19.6,13.4,19.6v1.1H408.9z"/>
					<path class="st0" d="M547,80.5c0,24-19.6,41.6-45,41.6c-25.2,0-44.8-17.6-44.8-41.6c0-24.1,19.6-41.7,44.8-41.7
						C527.3,38.8,547,56.4,547,80.5z M515.6,80.5c0-17.6,0-40.5-13.6-40.5c-13.4,0-13.4,22.9-13.4,40.5c0,18.1,0,40.3,13.4,40.3
						C515.6,120.8,515.6,98.6,515.6,80.5z"/>
					<path class="st0" d="M588.7,59.8c3.7-10.4,10-21,24.7-21c10.5,0,21.8,6.5,21.8,19.2c0,9.1-6.8,18.2-16.8,18.2
						c-7,0-13.3-4.2-13.8-13c5.3-1.2,7.7-6.5,7.7-11.3c0-4.5-2.2-9.3-6.5-9.3c-8.5,0-14.1,11.3-17,20.4v37.2
						c0,16.5,0.8,19.6,16.5,19.6v1.1h-58.6v-1.1c12.1,0,13.4-3.1,13.4-19.6V63.2c0-10.4-2.2-14.5-15.3-11.4l-0.3-1.1l44.5-11.9
						L588.7,59.8z"/>
				</g>
			</g>
			<g>
				<path class="st0" d="M242.8,154.8c0-9.8,0-20.2-11.5-20.2c-6.2,0-12.9,5-12.9,12.6c0,3.6,2.2,7.6,5.4,9c-0.5,8.8-6.8,13-13.8,13
					c-7.4,0-14.6-4.5-14.6-14.6c0-18.9,25.9-21.4,40.1-21.4c17.7,0,36,5.7,36,23.7v35.8c0,5.1,0,14,7.1,14c2,0,3.9-0.5,6.8-2.5
					l0.6,0.8c-7.1,6-16,11.8-27.1,11.8c-8.8,0-14.7-6.7-16.1-17.1c-4.5,10.9-16.4,17.1-28.7,17.1c-14.6,0-23.9-7-23.9-20.3
					c0-24.5,34.9-20.3,52.4-32.4V154.8z M242.8,165.3c-11,7.1-19.2,7.7-19.2,25c0,5.9,1.1,15.3,9.8,15.3c5.9,0,9.5-5.7,9.5-11.5
					V165.3z"/>
			</g>
			<g>
				<path class="st0" d="M395.3,133.3c13.8,0,34.3,4.7,34.3,21.5c0,9.9-7.1,14.4-14.6,14.4c-7,0-13.3-4.2-13.8-13
					c3.4-1.6,5.4-5.3,5.4-9.5c0-6.5-5-12.2-12.1-12.2c-13,0-16.7,18.4-16.7,29.6c0,21.9,14.3,33.6,29.6,33.6
					c7.8,0,17.7-2.9,23.3-11.5l0.9,0.5c-7.6,16.6-20.9,30.1-42.2,30.1c-22.2,0-39.8-15.8-39.8-40.5
					C349.6,150.9,368.5,133.3,395.3,133.3z"/>
				<path class="st0" d="M523.9,175.1c0,24-19.7,41.7-45.1,41.7c-25.3,0-45-17.7-45-41.7c0-24.2,19.7-41.9,45-41.9
					C504.2,133.3,523.9,150.9,523.9,175.1z M492.4,175.1c0-17.7,0-40.6-13.6-40.6c-13.5,0-13.5,22.9-13.5,40.6
					c0,18.1,0,40.5,13.5,40.5C492.4,215.6,492.4,193.2,492.4,175.1z"/>
				<path class="st0" d="M551.8,180.5c-5.6,7.6-21.4,34.1-4.3,34.1v1.1h-42v-1.1c18,0,33.6-22.2,45.4-35.3l-19.7-28.2
					c-7.8-11-12.7-15.7-22.2-15.7v-1.1h54.3v1.1c-9.1,0-2.3,10.7,0.2,14.3l8.4,11.9c6.5-6.8,18.1-26.2,3.9-26.2v-1.1h30.2v1.1
					c-14.6,0-22.5,16.4-33.1,27.6l24.8,34.9c9.8,14,13.8,16.7,21.7,16.7v1.1h-58.9v-1.1c15.3,0,5.6-13.8,0-22L551.8,180.5z"/>
			</g>
		</g>
		<circle class="st0" cx="318.5" cy="201.1" r="14.4"/>
	</g>
	<g>
		<g>
			<g>
				<g>
					<g>
						<path class="st0" d="M2.5,114.5H0v-4.6h2.5c12.9-0.2,15-4.1,15-24.2V46.1C17.5,4.1,22.6,0,53,0v4.6
							c-26.3,0-30.9,3.7-30.9,41.5v39.6c0,16.1-1.4,23.3-7.1,26.5c5.8,3.2,7.1,10.6,7.1,26.5v37.5c0,37.8,4.6,41.5,30.9,41.5v4.6
							c-30.4,0-35.5-4.1-35.5-46.1v-37.5C17.5,118.8,15.4,114.9,2.5,114.5z"/>
					</g>
				</g>
				<g>
					<g>
						<path class="st0" d="M153.8,138.8v37.5c0,41.9-5.1,46.1-35.5,46.1v-4.6c26.3,0,30.9-3.7,30.9-41.5v-37.5
							c0-15.9,1.4-23.3,7.1-26.5c-5.8-3.2-7.1-10.4-7.1-26.5V46.2c0-37.8-4.6-41.5-30.9-41.5V0.1c30.4,0,35.5,4.1,35.5,46.1v39.6
							c0,20,2.1,24,15,24.2h2.5v4.6h-2.5C155.9,115.1,153.8,119,153.8,138.8z"/>
					</g>
				</g>
				<g>
					<g>
						<g>
							<g>
								<path class="st0" d="M78.8,47.2H55.5l11.4-33.6L78.8,47.2z M60.3,43.7h13.5l-6.9-19.5L60.3,43.7z"/>
							</g>
						</g>
						<g>
							<g>
								<path class="st0" d="M78.1,192.8H56.2V50.6h21.9V192.8z M59.7,189.4h14.9V54.1H59.7V189.4z"/>
							</g>
						</g>
						<g>
							<g>
								<rect x="57.9" y="198.6" class="st0" width="18.3" height="10.5"/>
								<path class="st0" d="M78,210.9H56.2v-14H78V210.9z M59.7,207.4h14.9v-7H59.7V207.4z"/>
							</g>
						</g>
					</g>
					<g>
						<g>
							<polygon class="st0" points="66.8,22 62.1,33 71.9,33 							"/>
						</g>
					</g>
				</g>
				<g>
					<g>
						<g>
							<g>
								<path class="st0" d="M103.5,19.3v27.2c0.4,0.4,0.7,0.9,0.7,1.5c0,1.1-0.9,2-2,2c-1.1,0-2-0.9-2-2c0-0.6,0.3-1.1,0.7-1.5
									V19.3L85.7,53.8l6.8,11.8h20.1l6.4-11.8L103.5,19.3z"/>
							</g>
						</g>
					</g>
					<g>
						<g>
							<path class="st0" d="M102.1,211.5l-2.2-2.2c-5.3-5.1-8.3-12.3-8.3-19.6V70h21.9v119.1c0,7.7-3.3,15.2-9.1,20.4L102.1,211.5z
								 M95.1,73.5v116.2c0,6.4,2.6,12.6,7.2,17c4.9-4.5,7.8-10.9,7.8-17.6V73.5H95.1z"/>
						</g>
					</g>
				</g>
			</g>
		</g>
		<g>
			<rect x="62" y="91.2" class="st0" width="3.5" height="99.9"/>
		</g>
		<g>
			<rect x="103.8" y="70.4" class="st0" width="3.5" height="99.9"/>
		</g>
	</g>
</g>
</svg>
